<?xml version="1.0" encoding="UTF-8"?>
<!DOCTYPE svg PUBLIC "-//W3C//DTD SVG 1.1//EN" "http://www.w3.org/Graphics/SVG/1.1/DTD/svg11.dtd">
<!-- Creator: CorelDRAW 2018 (64-Bit) -->
<svg xmlns="http://www.w3.org/2000/svg" xml:space="preserve" width="12mm" height="12mm" version="1.1" style="shape-rendering:geometricPrecision; text-rendering:geometricPrecision; image-rendering:optimizeQuality; fill-rule:evenodd; clip-rule:evenodd"
viewBox="0 0 1200 1200"
 xmlns:xlink="http://www.w3.org/1999/xlink">
 <defs>
  <style type="text/css">
   <![CDATA[
    .str0 {stroke:black;stroke-width:20;stroke-miterlimit:22.9256}
    .fil0 {fill:none}
   ]]>
  </style>
 </defs>
 <g id="Слой_x0020_1">
  <metadata id="CorelCorpID_0Corel-Layer"/>
  <path class="fil0 str0" d="M116.16 78.12c14.39,11.24 23.15,76.11 23.15,99.22"/>
  <path class="fil0 str0" d="M248.45 64.89c0,22.88 4.74,78.22 -9.92,95.91"/>
  <path class="fil0 str0" d="M96.31 190.56c0.01,137.92 228.57,96.22 218.29,36.39"/>
  <path class="fil0 str0" d="M668.48 74.81c12.28,23.48 6.62,70.8 6.62,99.22"/>
  <path class="fil0 str0" d="M731.32 88.04c0,42.25 -9.92,72.85 -9.92,102.52"/>
  <path class="fil0 str0" d="M830.54 154.18c-62.49,217.94 -207.15,71.82 -208.36,66.15l-3.31 -6.61"/>
  <path class="fil0 str0" d="M420.43 369.16c-0.33,11.72 52.79,241.2 52.92,241.44"/>
  <path class="fil0 str0" d="M542.8 425.39c-0.82,49.01 4.24,114.85 23.16,162.05"/>
  <path class="fil0 str0" d="M651.95 590.75c-43.69,94.21 -201.22,79.92 -257.98,23.15"/>
  <path class="fil0 str0" d="M162.46 759.43c-0.79,13.54 -9.01,78.44 0,89.29"/>
  <path class="fil0 str0" d="M255.07 775.96c-0.3,16.25 6.68,75.54 13.23,89.3"/>
  <path class="fil0 str0" d="M109.54 928.1c64.97,69.13 28.33,72.51 168.49,69.73 18,-0.35 34.75,-28.27 43.18,-43.27"/>
  <path class="fil0 str0" d="M754.47 746.2c3.11,19.38 7.18,136.94 13.23,145.52"/>
  <path class="fil0 str0" d="M847.08 749.5c0,14.23 7.76,99.76 9.92,112.45"/>
  <path class="fil0 str0" d="M985.99 901.64c-46.57,105.88 -284.43,148.32 -284.43,62.84"/>
 </g>
</svg>
